# xmcd
#
# Track frame offsets: 
#        150
#        25225
#        45675
#        69167
#        94242
#
# Disc length: 1528 seconds
#
# Revision: 2
# Processed by: cddbd v1.5.2PL0 Copyright (c) Steve Scherf et al.
# Submitted via: ExactAudioCopyFreeDBPlugin 1.0
#
DISCID=3805f605
DTITLE=BoA - メリクリ
DYEAR=2004
DGENRE=Ballad
TTITLE0=メリクリ
TTITLE1=MEGA STEP
TTITLE2=THE CHRISTMAS SONG
TTITLE3=メリクリ (TV MIX)
TTITLE4=MEGA STEP (TV MIX)
EXTD=VanFanel (http://www.0hwa.com) from KOREA
EXTT0=VanFanel (http://www.0hwa.com) from KOREA
EXTT1=VanFanel (http://www.0hwa.com) from KOREA
EXTT2=VanFanel (http://www.0hwa.com) from KOREA
EXTT3=VanFanel (http://www.0hwa.com) from KOREA
EXTT4=VanFanel (http://www.0hwa.com) from KOREA
PLAYORDER=
